<?xml version="1.0" encoding="iso-8859-1"?>
<svg xmlns="http://www.w3.org/2000/svg" xmlns:xlink="http://www.w3.org/1999/xlink" x="0px" y="0px" viewBox="0 0 510.857 510.857" style="enable-background:new 0 0 510.857 510.857;" xml:space="preserve">
	<polygon style="fill:#CCCCCC;" points="254.429,20.444 330.314,174.959 500.371,199.645 377.857,319.416 406.2,488.559 254.429,409.016 102.657,488.559 131,319.416 8.486,199.645 178.543,174.959"/>
	<path style="fill:#E2E3E5;" d="M464.714,199.645l-170.057-24.686L236.143,57.016l-54.857,117.943L11.229,199.645l123.429,119.771 L105.4,488.559L227,413.587l16.457,6.4l0,0c1.829-5.486,7.314-8.229,11.886-7.314c10.971,1.829,22.857,6.4,32,12.8 c1.829,0.914,2.743,2.743,3.657,3.657c1.829,0.914,2.743,1.829,3.657,2.743c0.914-0.914,2.743-0.914,3.657-0.914 c4.571,0,8.229,2.743,9.143,6.4c0.914-0.914,2.743-0.914,4.571-0.914c7.314,0,10.057,6.4,9.143,11.886l52.114,20.114l-32-149.029 L464.714,199.645z"/>
	<path style="fill:#FFFFFF;" d="M178.543,174.959L8.486,199.645l123.429,119.771l-29.257,169.143l43.886-22.857 c0,0,0-0.914-0.914-0.914l-10.057,3.657l32-149.029L44.143,199.645l128-23.771L178.543,174.959z"/>
	<path style="fill:#B6B6B6;" d="M102.657,497.702c-1.829,0-3.657-0.914-5.486-1.829c-2.743-1.829-4.571-5.486-3.657-9.143 l28.343-164.571L2.086,206.044c-2.743-2.743-3.657-6.4-2.743-9.143c0.914-3.657,3.657-5.486,7.314-6.4l165.486-24.686L246.2,15.873 c2.743-6.4,13.714-6.4,16.457,0l74.057,149.943L502.2,189.587c3.657,0.914,6.4,2.743,7.314,6.4s0,7.314-2.743,9.143L387,322.159 l28.343,164.571c0.914,3.657-0.914,7.314-3.657,9.143c-2.743,1.829-6.4,2.743-10.057,0.914l-147.2-77.714l-148.114,77.714 C105.4,497.702,103.571,497.702,102.657,497.702z M27.686,206.044L137.4,313.016c1.829,1.829,2.743,5.486,2.743,8.229 l-25.6,150.857l136.229-71.314c2.743-1.829,5.486-1.829,8.229,0l136.229,71.314l-25.6-150.857c-0.914-2.743,0.914-6.4,2.743-8.229 l109.714-106.971l-151.771-21.943c-2.743,0-5.486-2.743-7.314-4.571L254.429,41.473l-67.657,137.143 c-0.914,2.743-3.657,4.571-7.314,4.571L27.686,206.044z"/>
</svg>
